<?xml version="1.0" encoding="UTF-8" standalone="no"?>
<!-- Created with Inkscape (http://www.inkscape.org/) -->

<svg
   version="1.1"
   id="svg2"
   width="138.81332"
   height="44.253334"
   viewBox="0 0 138.81332 44.253334"
   sodipodi:docname="ne.ch_RVB.svg"
   inkscape:version="1.2.2 (732a01da63, 2022-12-09)"
   xmlns:inkscape="http://www.inkscape.org/namespaces/inkscape"
   xmlns:sodipodi="http://sodipodi.sourceforge.net/DTD/sodipodi-0.dtd"
   xmlns="http://www.w3.org/2000/svg"
   xmlns:svg="http://www.w3.org/2000/svg">
  <defs
     id="defs6" />
  <sodipodi:namedview
     id="namedview4"
     pagecolor="#ffffff"
     bordercolor="#000000"
     borderopacity="0.25"
     inkscape:showpageshadow="2"
     inkscape:pageopacity="0.0"
     inkscape:pagecheckerboard="0"
     inkscape:deskcolor="#d1d1d1"
     showgrid="false"
     inkscape:zoom="10.229565"
     inkscape:cx="69.406664"
     inkscape:cy="22.190581"
     inkscape:window-width="1920"
     inkscape:window-height="1017"
     inkscape:window-x="-8"
     inkscape:window-y="-8"
     inkscape:window-maximized="1"
     inkscape:current-layer="g12">
    <inkscape:page
       x="0"
       y="0"
       id="page8"
       width="138.81332"
       height="44.253334" />
  </sodipodi:namedview>
  <g
     id="g10"
     inkscape:groupmode="layer"
     inkscape:label="Page 1"
     transform="matrix(1.3333333,0,0,-1.3333333,0,44.253333)">
    <g
       id="g12"
       transform="scale(0.1)">
      <path
         d="M 378.254,99.8594 V 202.781 c 0,19.688 -6.367,31.629 -27.375,31.629 -14.004,0 -23.227,-9.031 -28.641,-21.293 -5.73,-13.226 -5.414,-30.648 -5.414,-44.859 V 99.8594 H 277.047 V 267.648 h 33.414 l 2.867,-21.621 c 9.86,17.746 29.598,25.817 48.688,25.817 35.328,0 56.015,-25.176 56.015,-60.02 V 99.8594 h -39.777"
         style="fill:#11100e;fill-opacity:1;fill-rule:nonzero;stroke:none"
         id="path14" />
      <path
         d="m 555.996,230.883 c -5.332,5.672 -13.496,9.453 -24.785,9.453 -11.914,0 -21.633,-5.039 -27.273,-12.598 -5.645,-7.246 -8.157,-14.804 -8.469,-25.515 h 70.558 c -0.312,12.285 -3.75,21.734 -10.031,28.66 z m 48.914,-57.32 H 495.781 c -0.312,-12.59 4.074,-24.559 11.914,-32.129 5.645,-5.352 13.496,-10.079 24.141,-10.079 11.309,0 18.195,2.204 23.848,7.879 3.437,3.469 6.269,7.864 7.843,13.86 h 37.625 c -0.937,-9.778 -7.531,-22.696 -13.808,-30.246 -13.778,-16.375 -34.18,-22.9964 -54.864,-22.9964 -22.277,0 -38.578,7.8784 -51.433,20.1564 -16.309,15.762 -25.094,38.738 -25.094,65.515 0,26.149 7.84,49.454 23.524,65.52 12.226,12.598 29.793,20.789 52.046,20.789 24.161,0 46.106,-9.766 59.59,-30.234 11.914,-17.957 14.746,-36.532 14.114,-57 0,0 -0.317,-7.578 -0.317,-11.035"
         style="fill:#11100e;fill-opacity:1;fill-rule:nonzero;stroke:none"
         id="path16" />
      <path
         d="m 639.707,100.348 v 49.32 h 47.664 v -49.32 h -47.664"
         style="fill:#11100e;fill-opacity:1;fill-rule:nonzero;stroke:none"
         id="path18" />
      <path
         d="m 850.176,125.77 c -11.278,-14.219 -31.055,-25.9184 -55.821,-25.9184 -24.777,0 -45.457,12.0114 -56.765,25.9184 -12.227,15.488 -17.871,36.039 -17.871,60.078 0,24.023 5.644,44.57 17.871,60.058 11.308,13.91 31.988,25.926 56.765,25.926 24.766,0 44.543,-11.699 55.821,-25.926 7.519,-9.801 11.914,-22.758 12.539,-35.722 h -38.563 c -0.324,6.004 -2.199,11.062 -4.707,15.175 -4.707,7.27 -13.175,12.329 -25.09,12.329 -10.664,0 -18.503,-4.43 -23.835,-10.118 -9.407,-10.429 -10.977,-26.234 -10.977,-41.722 0,-15.508 1.57,-30.996 10.977,-41.426 5.332,-5.684 13.171,-10.43 23.835,-10.43 11.915,0 20.383,5.059 25.09,12.324 2.508,4.122 4.383,9.18 4.707,15.176 h 38.563 c -0.625,-12.949 -5.02,-25.918 -12.539,-35.722"
         style="fill:#11100e;fill-opacity:1;fill-rule:nonzero;stroke:none"
         id="path20" />
      <path
         d="m 1001.17,100.348 v 102.961 c 0,19.242 -6.365,31.113 -27.361,31.113 -23.868,0 -34.032,-25.664 -34.032,-46.192 V 100.348 H 900 V 331.93 h 39.777 v -82.434 c 9.539,14.113 27.996,21.809 45.172,21.809 35.321,0 56.001,-25.332 56.001,-59.657 v -111.3 h -39.78"
         style="fill:#11100e;fill-opacity:1;fill-rule:nonzero;stroke:none"
         id="path22" />
      <path
         d="M 15.0117,38.9375 H 3.21484 V 21.6914 H 15.0117 c 6.668,0 10.5391,3 10.5391,8.6328 0,5.6172 -3.8711,8.6133 -10.5391,8.6133 z M 20.25,19.7383 28.457,2.21094 H 25.2109 L 17.2852,19.0078 H 3.21484 V 2.21094 H 0.253906 V 41.6719 H 15.0117 c 8.8281,0 13.6172,-4.5117 13.6172,-11.3477 0,-5.1836 -3.3125,-9.2461 -8.3789,-10.5859"
         style="fill:#211c1d;fill-opacity:1;fill-rule:nonzero;stroke:none"
         id="path24" />
      <path
         d="m 45.6406,44.9063 -0.9375,1.5039 8.7852,6.457 1.5625,-2.4453 z M 37.5234,2.21094 V 41.6328 H 62.7695 V 38.8516 H 40.4727 V 24.3984 H 60.1016 V 21.6133 H 40.4727 V 4.99219 H 62.7695 V 2.21094 H 37.5234"
         style="fill:#211c1d;fill-opacity:1;fill-rule:nonzero;stroke:none"
         id="path26" />
      <path
         d="M 85.7578,38.8789 H 74.707 V 21.1953 h 11.0508 c 5.9258,0 10.3711,2.6641 10.3711,8.836 0,6.1835 -4.4453,8.8476 -10.3711,8.8476 z m 0,-20.4687 H 74.707 V 2.21094 H 71.7422 V 41.6719 h 14.0156 c 7.7539,0 13.4453,-3.6719 13.4453,-11.6406 0,-7.9493 -5.6914,-11.6211 -13.4453,-11.6211"
         style="fill:#211c1d;fill-opacity:1;fill-rule:nonzero;stroke:none"
         id="path28" />
      <path
         d="m 119.789,2.00391 c -9.687,0 -14.305,6.39843 -14.305,14.91409 v 24.539 h 2.965 V 16.8594 c 0,-6.7188 3.422,-12.12893 11.34,-12.12893 7.914,0 11.399,5.41013 11.399,12.12893 V 41.457 h 2.953 V 16.918 c 0,-8.51566 -4.672,-14.91409 -14.352,-14.91409"
         style="fill:#211c1d;fill-opacity:1;fill-rule:nonzero;stroke:none"
         id="path30" />
      <path
         d="M 159.59,21.2539 H 148.258 V 4.78906 h 11.332 c 5.531,0 10.832,1.57032 10.832,8.40624 0,6.4453 -4.961,8.0586 -10.832,8.0586 z m 0,17.5274 H 148.258 V 24.0352 h 11.332 c 5.59,0 9.922,1.2812 9.922,7.5703 0,5.5156 -5.016,7.1758 -9.922,7.1758 z M 169.742,4.78906 C 166.832,2.50391 163.184,2.05469 159.59,2.05469 H 145.297 V 41.5156 h 14.293 c 3.031,0 6.215,-0.4492 8.785,-2.1172 2.563,-1.6718 4.16,-4.6289 4.16,-7.5703 0,-4.2773 -1.828,-8.0156 -6.441,-9.2383 5.011,-1.1718 7.344,-5.1171 7.344,-9.6171 0,-3.12504 -1.133,-6.17192 -3.696,-8.18364"
         style="fill:#211c1d;fill-opacity:1;fill-rule:nonzero;stroke:none"
         id="path32" />
      <path
         d="M 182.324,2.05469 V 41.5156 h 2.969 V 4.78906 h 20.969 V 2.05469 h -23.938"
         style="fill:#211c1d;fill-opacity:1;fill-rule:nonzero;stroke:none"
         id="path34" />
      <path
         d="M 212.871,2.21094 V 41.6719 h 3.02 V 2.21094 h -3.02"
         style="fill:#211c1d;fill-opacity:1;fill-rule:nonzero;stroke:none"
         id="path36" />
      <path
         d="m 248.273,36.2148 c -2.117,1.9532 -5.078,2.9883 -8.214,2.9883 -3.133,0 -6.098,-1.0351 -8.207,-2.9883 -3.985,-3.6132 -4.157,-9.5898 -4.157,-14.1406 0,-4.5508 0.172,-10.5859 4.157,-14.1992 2.109,-1.95312 5.074,-2.98828 8.207,-2.98828 2.504,0 4.839,0.66406 6.781,1.90234 l -6.043,7.32424 2.055,1.5547 5.988,-7.19925 c 3.418,3.62505 3.582,9.26955 3.582,13.60545 0,4.5508 -0.164,10.5274 -4.149,14.1406 z M 250.66,6.24219 254.477,1.58594 252.422,0.00390625 248.609,4.61328 c -2.281,-1.51562 -5.132,-2.48047 -8.55,-2.48047 -4.391,0 -7.86,1.60938 -10.371,3.89453 -4.551,4.17966 -5.071,10.50786 -5.071,16.04686 0,5.5274 0.52,11.8242 5.071,15.9766 2.511,2.2851 5.98,3.9062 10.371,3.9062 4.39,0 7.867,-1.6211 10.367,-3.9062 4.558,-4.1524 5.078,-10.4492 5.078,-15.9766 0,-5.4219 -0.52,-11.6601 -4.844,-15.83201"
         style="fill:#211c1d;fill-opacity:1;fill-rule:nonzero;stroke:none"
         id="path38" />
      <path
         d="m 278.102,2.31641 c -9.684,0 -14.297,6.39843 -14.297,14.91409 v 24.539 h 2.965 V 17.1719 c 0,-6.7188 3.41,-12.12893 11.332,-12.12893 7.918,0 11.394,5.41013 11.394,12.12893 v 24.5976 h 2.965 v -24.539 c 0,-8.51566 -4.672,-14.91409 -14.359,-14.91409"
         style="fill:#211c1d;fill-opacity:1;fill-rule:nonzero;stroke:none"
         id="path40" />
      <path
         d="M 303.453,2.21094 V 41.6719 h 25.867 v -2.793 H 306.477 V 24.418 h 20.109 V 21.6445 H 306.477 V 5.00391 H 329.32 V 2.21094 h -25.867"
         style="fill:#211c1d;fill-opacity:1;fill-rule:nonzero;stroke:none"
         id="path42" />
      <path
         d="M 349.664,2.21094 V 41.6719 h 25.867 v -2.793 H 352.688 V 24.418 h 20.105 V 21.6445 H 352.688 V 5.00391 h 22.843 V 2.21094 h -25.867"
         style="fill:#211c1d;fill-opacity:1;fill-rule:nonzero;stroke:none"
         id="path44" />
      <path
         d="M 394.668,38.8789 V 2.21094 h -2.957 V 38.8789 h -12.82 v 2.793 h 28.66 v -2.793 h -12.883"
         style="fill:#211c1d;fill-opacity:1;fill-rule:nonzero;stroke:none"
         id="path46" />
      <path
         d="m 436.773,1.89844 c -3.878,0 -7.867,1.5039 -10.66,4.1289 -4.328,4.13286 -4.73,10.20706 -4.73,15.63676 0,5.4179 0.402,11.4336 4.73,15.5742 2.793,2.6172 6.782,4.1211 10.66,4.1211 8.028,0 13.731,-5.3125 14.348,-12.3516 h -3.07 c -0.516,5.6524 -4.906,9.6172 -11.278,9.6172 -3.593,0 -6.328,-1.1797 -8.492,-3.2812 -3.652,-3.543 -3.824,-9.129 -3.824,-13.6797 0,-4.5703 0.231,-10.2071 3.883,-13.75004 2.223,-2.16015 5.07,-3.28125 8.433,-3.28125 6.372,0 10.762,3.97266 11.278,9.60939 h 3.07 C 450.504,7.21094 444.801,1.89844 436.773,1.89844"
         style="fill:#211c1d;fill-opacity:1;fill-rule:nonzero;stroke:none"
         id="path48" />
      <path
         d="M 469.352,37.3555 460.746,15.043 h 17.379 z M 483.305,1.89844 479.211,12.2969 H 459.664 L 455.68,1.89844 h -3.082 L 467.93,41.3594 h 2.906 L 486.328,1.89844 h -3.023"
         style="fill:#211c1d;fill-opacity:1;fill-rule:nonzero;stroke:none"
         id="path50" />
      <path
         d="M 518.594,2.05469 495.168,37.0039 V 2.05469 h -2.949 V 41.5156 h 3.355 L 519.043,6.625 v 34.8906 h 2.91 V 2.05469 h -3.359"
         style="fill:#211c1d;fill-opacity:1;fill-rule:nonzero;stroke:none"
         id="path52" />
      <path
         d="M 544.172,38.7227 V 2.05469 h -2.961 V 38.7227 h -12.82 v 2.7929 h 28.66 v -2.7929 h -12.879"
         style="fill:#211c1d;fill-opacity:1;fill-rule:nonzero;stroke:none"
         id="path54" />
      <path
         d="m 582.852,35.8242 c -2.118,1.9336 -5.079,2.9571 -8.204,2.9571 -3.132,0 -6.101,-1.0235 -8.203,-2.9571 -3.996,-3.5859 -4.16,-9.4922 -4.16,-14.0039 0,-4.5117 0.164,-10.4883 4.16,-14.07421 2.102,-1.93359 5.071,-2.95703 8.203,-2.95703 3.125,0 6.086,1.02344 8.204,2.95703 3.984,3.58591 4.152,9.56251 4.152,14.07421 0,4.5117 -0.168,10.418 -4.152,14.0039 z m 2.16,-29.91404 C 582.5,3.65625 579.035,2.05469 574.648,2.05469 c -4.382,0 -7.863,1.60156 -10.371,3.85547 -4.558,4.14064 -5.078,10.42184 -5.078,15.91014 0,5.4766 0.52,11.707 5.078,15.8281 2.508,2.2657 5.989,3.8672 10.371,3.8672 4.387,0 7.852,-1.6015 10.364,-3.8672 4.558,-4.1211 5.078,-10.3515 5.078,-15.8281 0,-5.4883 -0.52,-11.7695 -5.078,-15.91014"
         style="fill:#211c1d;fill-opacity:1;fill-rule:nonzero;stroke:none"
         id="path56" />
      <path
         d="M 625.352,2.05469 601.934,37.0039 V 2.05469 h -2.957 V 41.5156 h 3.347 L 625.801,6.625 v 34.8906 h 2.91 V 2.05469 h -3.359"
         style="fill:#211c1d;fill-opacity:1;fill-rule:nonzero;stroke:none"
         id="path58" />
      <path
         d="m 674.023,36.2031 c -2.058,1.9532 -5.019,3.0274 -8.035,3.0274 H 655.566 V 4.64063 h 10.422 c 3.016,0 5.977,1.08593 8.035,3.03906 3.75,3.63281 4.043,9.45311 4.043,14.29691 0,4.832 -0.293,10.6445 -4.043,14.2265 z M 676.191,6.10547 C 673.789,3.82031 670.254,2.21094 665.988,2.21094 h -13.39 V 41.6719 h 13.39 c 4.266,0 7.801,-1.6094 10.203,-3.8946 4.434,-4.1718 4.895,-10.3046 4.895,-15.8007 0,-5.5274 -0.461,-11.6914 -4.895,-15.87113"
         style="fill:#211c1d;fill-opacity:1;fill-rule:nonzero;stroke:none"
         id="path60" />
      <path
         d="M 689.66,2.41406 V 41.8789 h 25.867 v -2.793 H 692.676 V 24.6211 h 20.117 V 21.8477 H 692.676 V 5.20703 h 22.851 V 2.41406 H 689.66"
         style="fill:#211c1d;fill-opacity:1;fill-rule:nonzero;stroke:none"
         id="path62" />
      <path
         d="M 757.395,2.41406 738.02,34.125 V 2.41406 h -4.778 V 41.8672 h 5.567 L 758.176,10.043 v 31.8242 h 4.773 V 2.41406 h -5.554"
         style="fill:#ee2432;fill-opacity:1;fill-rule:nonzero;stroke:none"
         id="path64" />
      <path
         d="M 774.082,2.41406 V 41.8672 h 26.367 V 37.3086 H 779.035 V 25.2852 h 18.809 V 20.6094 H 779.035 V 6.97656 h 21.414 v -4.5625 h -26.367"
         style="fill:#ee2432;fill-opacity:1;fill-rule:nonzero;stroke:none"
         id="path66" />
      <path
         d="m 822.16,2.41406 c -8.847,0 -14.418,5.25391 -14.418,14.92184 v 24.5313 h 4.953 V 17.2109 c 0,-6.164 2.618,-10.2734 9.465,-10.2734 6.844,0 9.453,4.1094 9.453,10.2734 v 24.6563 h 4.961 V 17.3359 c 0,-9.66793 -5.578,-14.92184 -14.414,-14.92184"
         style="fill:#ee2432;fill-opacity:1;fill-rule:nonzero;stroke:none"
         id="path68" />
      <path
         d="m 870.176,6.45703 c -2.391,-2.30469 -6.278,-4.07031 -10.574,-4.07031 -3.957,0 -7.844,1.38672 -10.684,4.07031 -4.289,4.02347 -4.953,9.58987 -4.953,15.65627 0,6.0547 0.664,11.6289 4.953,15.6445 2.84,2.6836 6.727,4.082 10.684,4.082 4.296,0 8.125,-1.6015 10.515,-3.9179 2.285,-2.2539 3.731,-5.1446 3.906,-8.6914 h -5.125 c -0.058,2.0898 -0.902,3.9179 -2.168,5.3242 -1.562,1.6601 -4.121,2.7812 -7.128,2.7812 -2.668,0 -5.286,-1.0156 -7.18,-2.8906 -3.231,-3.2226 -3.34,-8.3672 -3.34,-12.332 0,-3.9766 0.109,-9.1211 3.34,-12.33596 1.894,-1.875 4.512,-2.89843 7.18,-2.89843 3.007,0 5.625,1.23828 7.175,2.89843 1.289,1.39846 2.121,3.39066 2.176,5.48046 h 5.11 c -0.157,-3.5469 -1.602,-6.55467 -3.887,-8.80077"
         style="fill:#ee2432;fill-opacity:1;fill-rule:nonzero;stroke:none"
         id="path70" />
      <path
         d="M 905.734,2.41406 V 20.6094 H 886.809 V 2.41406 h -4.954 V 41.8672 h 4.954 V 25.3945 h 18.925 v 16.4727 h 4.942 V 2.41406 h -4.942"
         style="fill:#ee2432;fill-opacity:1;fill-rule:nonzero;stroke:none"
         id="path72" />
      <path
         d="m 933.379,36.9063 -6.961,-20.4688 h 13.973 z m 5.793,7.414 -6.016,6.3945 -5.957,-6.3945 -2.5,2.5 6.953,7.2774 h 3.067 l 6.953,-7.2774 z m 6.055,-41.90624 -3.223,9.34764 h -17.141 l -3.172,-9.34764 h -5 l 13.907,39.45314 h 5.781 L 950.352,2.41406 h -5.125"
         style="fill:#ee2432;fill-opacity:1;fill-rule:nonzero;stroke:none"
         id="path74" />
      <path
         d="M 964.367,37.2383 V 2.41406 h -5.012 V 37.2383 h -11.738 v 4.6289 h 28.488 v -4.6289 h -11.738"
         style="fill:#ee2432;fill-opacity:1;fill-rule:nonzero;stroke:none"
         id="path76" />
      <path
         d="M 982.395,2.41406 V 41.8672 h 26.365 V 37.3086 H 987.344 V 25.2852 h 18.806 V 20.6094 H 987.344 V 6.97656 h 21.416 v -4.5625 h -26.365"
         style="fill:#ee2432;fill-opacity:1;fill-rule:nonzero;stroke:none"
         id="path78" />
      <path
         d="M 1017.17,2.41406 V 41.8672 h 4.95 V 7.04297 h 18.97 V 2.41406 h -23.92"
         style="fill:#ee2432;fill-opacity:1;fill-rule:nonzero;stroke:none"
         id="path80" />
      <path
         d="M 171.078,271.008 136.215,100.203 h 68.262 l 34.898,170.496 -68.297,0.309"
         style="fill:#ee2432;fill-opacity:1;fill-rule:nonzero;stroke:none"
         id="path82" />
      <path
         d="m 176.176,238.852 -2.988,-13.551 h 45.832 l 3.003,13.551 h -45.847"
         style="fill:#ffffff;fill-opacity:1;fill-rule:nonzero;stroke:none"
         id="path84" />
      <path
         d="m 186.32,209.07 h 13.332 l 9.473,46.043 H 195.797 L 186.32,209.07"
         style="fill:#ffffff;fill-opacity:1;fill-rule:nonzero;stroke:none"
         id="path86" />
      <path
         d="M 103.52,271 68.3203,100.672 136.215,100.203 171.098,271 H 103.52"
         style="fill:#ffffff;fill-opacity:1;fill-rule:nonzero;stroke:none"
         id="path88" />
      <path
         d="M 34.8633,271 0,100.191 H 68.2656 L 103.16,270.691 34.8633,271"
         style="fill:#149e75;fill-opacity:1;fill-rule:nonzero;stroke:none"
         id="path90" />
    </g>
  </g>
</svg>
